<?xml version="1.0" encoding="utf-8"?>
<!-- Generator: Adobe Illustrator 16.0.0, SVG Export Plug-In . SVG Version: 6.00 Build 0)  -->
<!DOCTYPE svg PUBLIC "-//W3C//DTD SVG 1.1//EN" "http://www.w3.org/Graphics/SVG/1.1/DTD/svg11.dtd">
<svg version="1.1" id="Layer_1" xmlns="http://www.w3.org/2000/svg" xmlns:xlink="http://www.w3.org/1999/xlink" x="0px" y="0px"
	 width="841.889px" height="1190.551px" viewBox="0 0 841.889 1190.551" enable-background="new 0 0 841.889 1190.551"
	 xml:space="preserve">
<title>Asset 13</title>
<g id="Layer_2">
	<g id="Layer_1-2">
		<path fill="#FFFFFF" d="M247.512,659.31c29.26,0,52.979-23.721,52.979-52.98c0-29.261-23.72-52.98-52.979-52.98
			c-29.261,0-52.98,23.72-52.98,52.98C194.531,635.59,218.251,659.31,247.512,659.31L247.512,659.31z"/>
		<path fill="#FFFFFF" d="M421.821,659.31c29.261,0,52.98-23.721,52.98-52.98c0-29.261-23.72-52.98-52.98-52.98
			c-29.26,0-52.98,23.72-52.98,52.98C368.84,635.59,392.561,659.31,421.821,659.31L421.821,659.31z"/>
		<path fill="#FFFFFF" d="M588.177,659.31c29.26,0,52.98-23.721,52.98-52.98c0-29.261-23.721-52.98-52.98-52.98
			c-29.261,0-52.98,23.72-52.98,52.98C535.197,635.59,558.916,659.31,588.177,659.31L588.177,659.31z"/>
		<circle fill="#FFFFFF" cx="250.613" cy="781.448" r="52.98"/>
		<path fill="#FFFFFF" d="M424.921,728.602c-29.26-0.074-53.04,23.585-53.114,52.846c-0.075,29.26,23.585,53.04,52.845,53.115
			c29.261,0.074,53.041-23.586,53.115-52.846c0-0.045,0-0.09,0-0.135c0.075-29.186-23.524-52.905-52.71-52.98
			C425.012,728.602,424.966,728.602,424.921,728.602z"/>
		<path fill="#FFFFFF" d="M591.143,728.602c-29.261,0-52.98,23.721-52.98,52.98c0,29.261,23.72,52.98,52.98,52.98
			c29.26,0,52.98-23.72,52.98-52.98c0.074-29.186-23.525-52.906-52.711-52.98C591.323,728.602,591.233,728.602,591.143,728.602z"/>
		<path fill="#FFFFFF" d="M653.425,264.181V212.01c0-27.92-22.634-50.554-50.554-50.554c-27.921,0-50.555,22.634-50.555,50.554
			v51.497H287.55V212.01c-1.443-27.957-25.277-49.451-53.234-48.008c-25.939,1.339-46.669,22.068-48.008,48.008v52.307
			C81.244,272.606,0.165,360.198,0,465.588v361.426c0,111.681,90.534,202.216,202.215,202.216h437.594
			c111.681,0,202.215-90.535,202.215-202.216V465.588C841.84,359.327,759.445,271.336,653.425,264.181z M740.647,827.013
			c-0.074,55.661-45.178,100.764-100.838,100.839H202.215c-55.66-0.075-100.764-45.178-100.838-100.839V465.588
			c0.119-49.511,36.164-91.611,85.065-99.355v88.57c-1.443,27.958,20.051,51.792,48.008,53.234
			c27.957,1.443,51.791-20.051,53.234-48.008c0.09-1.741,0.09-3.485,0-5.227v-90.188h265.037v90.188
			c0,27.921,22.634,50.555,50.554,50.555s50.554-22.634,50.554-50.555v-88.705c49.867,6.677,87.128,49.178,87.222,99.49
			L740.647,827.013z"/>
	</g>
</g>
</svg>
