<?xml version="1.0" encoding="utf-8"?>
<!-- Generator: Adobe Illustrator 16.0.0, SVG Export Plug-In . SVG Version: 6.00 Build 0)  -->
<!DOCTYPE svg PUBLIC "-//W3C//DTD SVG 1.1//EN" "http://www.w3.org/Graphics/SVG/1.1/DTD/svg11.dtd">
<svg version="1.1" id="Layer_1" xmlns="http://www.w3.org/2000/svg" xmlns:xlink="http://www.w3.org/1999/xlink" x="0px" y="0px"
	 width="841.889px" height="1190.551px" viewBox="0 0 841.889 1190.551" enable-background="new 0 0 841.889 1190.551"
	 xml:space="preserve">
<title>Asset 10</title>
<g id="Layer_2">
	<g id="Layer_1-2">
		<path fill="#FFFFFF" d="M44.921,683.245l113.986-106.874c10.718-9.877,11.4-26.573,1.523-37.291
			c-0.986-1.07-2.06-2.057-3.208-2.95L43.237,445.539c-11.438-9.199-28.168-7.386-37.368,4.053
			C2.056,454.33-0.015,460.233,0,466.315v197.464c0.11,14.782,12.183,26.676,26.964,26.564
			C33.624,690.295,40.027,687.763,44.921,683.245z"/>
		<path fill="#FFFFFF" d="M568.621,650.677c-9.612-9.098-24.455-9.736-34.813-1.497l-100.51,79.734
			c-9.717,7.655-23.413,7.655-33.13,0l-102.381-81.232c-10.271-8.295-25.11-7.653-34.627,1.498L26.765,870.602
			c-8.497,7.819-10.923,20.255-5.989,30.695c34.138,70.28,105.295,115.007,183.427,115.297h433.484
			c74.27-0.167,142.615-40.572,178.561-105.563c6.067-10.745,4.062-24.238-4.866-32.755L568.621,650.677z"/>
		<path fill="#FFFFFF" d="M47.915,290.562l352.253,279.632c9.643,7.866,23.487,7.866,33.13,0l357.494-283.562
			c11.47-9.16,13.342-25.884,4.182-37.354c-0.021-0.026-0.043-0.054-0.064-0.08c-38.606-47.171-96.268-74.629-157.223-74.868
			H204.202c-62.879,0.062-122.209,29.14-160.779,78.799c-9.104,11.514-7.15,28.229,4.364,37.333
			C47.829,290.495,47.872,290.529,47.915,290.562z"/>
		<path fill="#FFFFFF" d="M798.654,438.988l-124.843,98.639c-11.513,9.105-13.465,25.82-4.358,37.334
			c0.817,1.034,1.712,2.006,2.674,2.907l124.281,116.42c10.853,10.036,27.786,9.374,37.822-1.479
			c4.355-4.709,6.874-10.826,7.099-17.237V459.764c-0.206-14.678-12.271-26.409-26.947-26.204
			C808.693,433.639,803.18,435.543,798.654,438.988z"/>
	</g>
</g>
</svg>
