<svg xmlns="http://www.w3.org/2000/svg" viewBox="0 0 45.43 43.54"><defs><style>.cls-1{fill:#9cc;}</style></defs><title>Asset 27</title><g id="Layer_2" data-name="Layer 2"><g id="Layer_1-2" data-name="Layer 1"><path class="cls-1" d="M43.16,14.32,33,11.46a3.12,3.12,0,0,1-1.73-1.25l-6-8.85a3.11,3.11,0,0,0-5.14,0l-6,8.86a3.13,3.13,0,0,1-1.72,1.24L2.26,14.32A3.12,3.12,0,0,0,.61,19.17l6.5,8.76a3.12,3.12,0,0,1,.61,1.76L8,39.82a3.11,3.11,0,0,0,4,2.9l9.68-2.86a3.15,3.15,0,0,1,1.92,0l9.82,3.46a3.11,3.11,0,0,0,4.14-2.92l0-10.68a3.11,3.11,0,0,1,.63-1.88l6.59-8.69A3.11,3.11,0,0,0,43.16,14.32Zm-20.44,23A12.88,12.88,0,1,1,35.59,24.4,12.88,12.88,0,0,1,22.72,37.28Z"/></g></g></svg>