<?xml version="1.0" encoding="utf-8"?>
<!-- Generator: Adobe Illustrator 16.0.0, SVG Export Plug-In . SVG Version: 6.00 Build 0)  -->
<!DOCTYPE svg PUBLIC "-//W3C//DTD SVG 1.1//EN" "http://www.w3.org/Graphics/SVG/1.1/DTD/svg11.dtd">
<svg version="1.1" id="Layer_1" xmlns="http://www.w3.org/2000/svg" xmlns:xlink="http://www.w3.org/1999/xlink" x="0px" y="0px"
	 width="841.889px" height="1190.551px" viewBox="0 0 841.889 1190.551" enable-background="new 0 0 841.889 1190.551"
	 xml:space="preserve">
<title>Asset 27</title>
<g id="Layer_2">
	<g id="Layer_1-2">
		<path d="M799.823,457.215l-188.28-53c-13.078-3.713-24.429-11.914-32.06-23.165L468.293,217.046
			c-17.925-26.304-53.778-33.096-80.082-15.171c-5.962,4.062-11.107,9.209-15.171,15.171L261.851,381.235
			c-7.627,11.135-18.899,19.262-31.874,22.979l-188.096,53c-30.69,8.816-48.424,40.844-39.607,71.535
			c1.896,6.603,4.954,12.813,9.03,18.344l120.455,162.336c7.002,9.468,10.945,20.847,11.305,32.616l5.188,187.725
			c0.815,31.819,27.271,56.953,59.09,56.139c5.097-0.131,10.152-0.937,15.037-2.397l179.385-53c11.571-3.703,24.01-3.703,35.581,0
			l181.98,64.119c30.033,10.542,62.926-5.259,73.468-35.292c2.124-6.049,3.223-12.409,3.253-18.82V742.601
			c-0.014-12.576,4.086-24.812,11.675-34.84l122.123-161.039c18.909-25.604,13.482-61.689-12.121-80.6
			C812.321,462.134,806.263,459.119,799.823,457.215z M421.037,883.441c-131.823,0.102-238.77-106.68-238.871-238.503
			c-0.102-131.822,106.68-238.769,238.503-238.87c131.605-0.102,238.461,106.34,238.869,237.945
			c0,131.75-106.751,238.584-238.501,238.687V883.441z"/>
	</g>
</g>
</svg>
