<?xml version="1.0" encoding="utf-8"?>
<!-- Generator: Adobe Illustrator 16.0.0, SVG Export Plug-In . SVG Version: 6.00 Build 0)  -->
<!DOCTYPE svg PUBLIC "-//W3C//DTD SVG 1.1//EN" "http://www.w3.org/Graphics/SVG/1.1/DTD/svg11.dtd">
<svg version="1.1" id="Layer_1" xmlns="http://www.w3.org/2000/svg" xmlns:xlink="http://www.w3.org/1999/xlink" x="0px" y="0px"
	 width="841.889px" height="1190.551px" viewBox="0 0 841.889 1190.551" enable-background="new 0 0 841.889 1190.551"
	 xml:space="preserve">
<title>Asset 14</title>
<g id="Layer_2">
	<g id="Layer_1-2">
		<path d="M463.975,165.146c-12.063-13.883-29.571-21.83-47.963-21.771l0,0c-18.436,0.071-35.934,8.138-47.962,22.11L15.648,572.144
			C5.612,583.78,0.062,598.618,0,613.984v369.24c-0.094,35.225,28.385,63.855,63.609,63.949c0.057,0.001,0.113,0.001,0.17,0.001
			h709.568c35.225,0,63.779-28.556,63.779-63.779c0-0.057,0-0.114,0-0.171v-369.24c-0.013-15.508-5.63-30.488-15.817-42.18
			L463.975,165.146z M709.398,919.445H127.729v-281.65L416.863,304.27l292.535,333.694V919.445z"/>
		<circle cx="747.495" cy="256.988" r="94.394"/>
	</g>
</g>
</svg>
