<?xml version="1.0" encoding="utf-8"?>
<!-- Generator: Adobe Illustrator 16.0.0, SVG Export Plug-In . SVG Version: 6.00 Build 0)  -->
<!DOCTYPE svg PUBLIC "-//W3C//DTD SVG 1.1//EN" "http://www.w3.org/Graphics/SVG/1.1/DTD/svg11.dtd">
<svg version="1.1" id="Layer_1" xmlns="http://www.w3.org/2000/svg" xmlns:xlink="http://www.w3.org/1999/xlink" x="0px" y="0px"
	 width="841.889px" height="1190.551px" viewBox="0 0 841.889 1190.551" enable-background="new 0 0 841.889 1190.551"
	 xml:space="preserve">
<title>Asset 2</title>
<g id="Layer_2">
	<g id="Layer_1-2">
		<path d="M721.724,903.894c-49.385-17.146-79.866-60.229-98.477-102.58c167.209-55.283,257.942-235.649,202.658-402.859
			c-43.26-130.84-165.674-219.088-303.479-218.776H319.61C143.418,179.667,0.575,322.488,0.564,498.68
			C0.551,674.873,143.372,817.715,319.565,817.727c0.015,0,0.03,0,0.045,0h191.972c25.792,71.366,76.349,156.215,174.239,190.506
			c28.691,9.915,59.987-5.307,69.901-33.998c9.914-28.69-5.307-59.986-33.998-69.9V903.894z"/>
	</g>
</g>
</svg>
