<?xml version="1.0" encoding="utf-8"?>
<!-- Generator: Adobe Illustrator 16.0.0, SVG Export Plug-In . SVG Version: 6.00 Build 0)  -->
<!DOCTYPE svg PUBLIC "-//W3C//DTD SVG 1.1//EN" "http://www.w3.org/Graphics/SVG/1.1/DTD/svg11.dtd">
<svg version="1.1" id="Layer_1" xmlns="http://www.w3.org/2000/svg" xmlns:xlink="http://www.w3.org/1999/xlink" x="0px" y="0px"
	 width="841.889px" height="1190.551px" viewBox="0 0 841.889 1190.551" enable-background="new 0 0 841.889 1190.551"
	 xml:space="preserve">
<title>Asset 9</title>
<g id="Layer_2">
	<g id="Layer_1-2">
		<path fill="#FFFFFF" d="M666.791,0H175.098C96.4,0.218,32.656,63.962,32.438,142.66v906.021
			c0.218,78.699,63.962,142.442,142.66,142.66h491.693c78.698-0.218,142.442-63.961,142.66-142.66V142.66
			C809.234,63.962,745.49,0.218,666.791,0z M429.354,1143.062c-37.7,0.109-68.352-30.364-68.461-68.064
			c-0.109-37.701,30.365-68.352,68.065-68.461s68.352,30.364,68.461,68.065c0,0.065,0,0.132,0,0.197
			c0.109,37.591-30.275,68.153-67.867,68.263c-0.132,0.001-0.264,0.001-0.396,0H429.354z M697.657,969.536h-554.02v-844.09h554.02
			V969.536z"/>
	</g>
</g>
</svg>
