<?xml version="1.0" encoding="utf-8"?>
<!-- Generator: Adobe Illustrator 16.0.0, SVG Export Plug-In . SVG Version: 6.00 Build 0)  -->
<!DOCTYPE svg PUBLIC "-//W3C//DTD SVG 1.1//EN" "http://www.w3.org/Graphics/SVG/1.1/DTD/svg11.dtd">
<svg version="1.1" id="Layer_1" xmlns="http://www.w3.org/2000/svg" xmlns:xlink="http://www.w3.org/1999/xlink" x="0px" y="0px"
	 width="841.889px" height="1190.551px" viewBox="0 0 841.889 1190.551" enable-background="new 0 0 841.889 1190.551"
	 xml:space="preserve">
<title>Asset 5</title>
<g id="Layer_2">
	<g id="Layer_1-2">
		<circle cx="420.945" cy="1057.073" r="133.478"/>
		<path d="M822.79,282.791C813.458,139.699,677.719,28.279,485.421,3.959C302.455-18.381,89.514,52.034,22.776,258.471
			c-16.224,53.67,14.134,110.33,67.805,126.554c52.204,15.78,107.548-12.505,125.341-64.058
			c33.087-103.219,152.707-126.407,244.897-115.379c92.189,11.029,156.948,56.559,159.493,91.342
			c3.677,58.538-7.069,69.85-94.734,131.216c-14.988,10.463-30.824,21.491-47.227,33.935
			C308.676,587.074,317.726,744.872,319.422,762.687c4.954,52.067,48.654,91.851,100.957,91.907h9.614
			c55.827-5.206,96.863-54.683,91.657-110.51c-0.011-0.114-0.021-0.229-0.032-0.345c0,0,0-61.648,77.202-117.924
			c14.987-11.312,29.692-21.491,43.549-31.106C736.823,527.97,834.385,459.536,822.79,282.791z"/>
	</g>
</g>
</svg>
