<?xml version="1.0" encoding="utf-8"?>
<!-- Generator: Adobe Illustrator 16.0.0, SVG Export Plug-In . SVG Version: 6.00 Build 0)  -->
<!DOCTYPE svg PUBLIC "-//W3C//DTD SVG 1.1//EN" "http://www.w3.org/Graphics/SVG/1.1/DTD/svg11.dtd">
<svg version="1.1" id="Layer_1" xmlns="http://www.w3.org/2000/svg" xmlns:xlink="http://www.w3.org/1999/xlink" x="0px" y="0px"
	 width="841.889px" height="1190.551px" viewBox="0 0 841.889 1190.551" enable-background="new 0 0 841.889 1190.551"
	 xml:space="preserve">
<title>Asset 12</title>
<g id="Layer_2">
	<g id="Layer_1-2">
		<path fill="#FFFFFF" d="M840.866,654.105l1.022-109.621l-122.629-1.169c-7.596-44.159-24.975-86.059-50.864-122.63l90.035-87.697
			l-76.734-78.927l-91.644,89.743c-34.794-23.365-74.064-39.243-115.321-46.626V174.842H365.404v122.63
			c-38.819,7.341-75.816,22.239-108.891,43.848l-84.773-86.381l-78.635,76.589l83.458,85.065
			c-26.395,35.934-44.513,77.262-53.057,121.022l-122.483-1.17L0,646.066l122.629,1.17c6.887,39.994,21.803,78.179,43.849,112.252
			l-85.065,83.458l76.881,78.342l83.458-81.996c36.646,27.003,78.913,45.389,123.652,53.787v122.63h109.621V893.372
			c43.285-7.783,84.343-24.944,120.29-50.28l86.967,88.721l77.758-76.881l-87.697-89.89c22.868-33.85,38.631-71.988,46.333-112.105
			L840.866,654.105z M420.945,788.719c-106.876,0.323-193.778-86.056-194.102-192.932
			c-0.322-106.877,86.056-193.778,192.933-194.102c106.876-0.323,193.778,86.056,194.102,192.933c0,0.243,0.001,0.486,0,0.729
			C613.718,701.907,527.503,788.318,420.945,788.719z"/>
	</g>
</g>
</svg>
