<svg xmlns="http://www.w3.org/2000/svg" viewBox="0 0 45.43 43.54"><defs><style>.cls-1{fill:#9cc;}</style></defs><title>Asset 26</title><g id="Layer_2" data-name="Layer 2"><g id="Layer_1-2" data-name="Layer 1"><path class="cls-1" d="M25.21,1.36l6,8.85A3.12,3.12,0,0,0,33,11.46l10.2,2.86a3.11,3.11,0,0,1,1.64,4.87l-6.59,8.7a3.06,3.06,0,0,0-.63,1.87l0,10.68a3.11,3.11,0,0,1-4.14,2.92l-9.82-3.45a3.08,3.08,0,0,0-1.92,0L12,42.72a3.11,3.11,0,0,1-4-2.9L7.72,29.69a3.12,3.12,0,0,0-.61-1.76L.61,19.17a3.12,3.12,0,0,1,1.65-4.85l10.06-2.86A3.13,3.13,0,0,0,14,10.22l6-8.86A3.11,3.11,0,0,1,25.21,1.36Z"/></g></g></svg>