<?xml version="1.0" encoding="utf-8"?>
<!-- Generator: Adobe Illustrator 16.0.0, SVG Export Plug-In . SVG Version: 6.00 Build 0)  -->
<!DOCTYPE svg PUBLIC "-//W3C//DTD SVG 1.1//EN" "http://www.w3.org/Graphics/SVG/1.1/DTD/svg11.dtd">
<svg version="1.1" id="Layer_1" xmlns="http://www.w3.org/2000/svg" xmlns:xlink="http://www.w3.org/1999/xlink" x="0px" y="0px"
	 width="841.889px" height="1190.551px" viewBox="0 0 841.889 1190.551" enable-background="new 0 0 841.889 1190.551"
	 xml:space="preserve">
<title>Asset 26</title>
<g id="Layer_2">
	<g id="Layer_1-2">
		<path d="M467.181,217.046L578.37,381.05c7.906,11.465,19.686,19.69,33.172,23.165l189.021,53
			c30.646,8.604,48.514,40.422,39.909,71.066c-1.946,6.933-5.174,13.439-9.518,19.183L708.832,708.688
			c-7.611,9.945-11.717,22.131-11.675,34.654V941.26c-0.147,31.83-26.071,57.513-57.9,57.364c-6.411-0.029-12.771-1.129-18.82-3.252
			l-181.979-63.934c-11.558-3.791-24.023-3.791-35.581,0l-180.497,52.073c-30.496,9.119-62.61-8.209-71.729-38.705
			c-1.461-4.884-2.267-9.94-2.397-15.036l-5.188-187.725c-0.359-11.77-4.303-23.148-11.305-32.616L11.304,547.094
			c-18.947-25.704-13.47-61.9,12.233-80.848c5.53-4.076,11.741-7.135,18.344-9.031l186.428-53
			c12.702-3.87,23.691-11.981,31.133-22.979l111.189-164.189c17.388-26.662,53.096-34.18,79.757-16.793
			C457.091,204.624,462.81,210.343,467.181,217.046z"/>
	</g>
</g>
</svg>
